<svg width="22" height="20" viewBox="0 0 22 20" fill="none" xmlns="http://www.w3.org/2000/svg">
<path d="M10.1248 17.875C10.1248 18.8433 9.34317 19.625 8.37484 19.625C7.4065 19.625 6.62484 18.8433 6.62484 17.875C6.62484 16.9067 7.4065 16.125 8.37484 16.125C9.34317 16.125 10.1248 16.9067 10.1248 17.875ZM15.9582 16.125C14.9898 16.125 14.2082 16.9067 14.2082 17.875C14.2082 18.8433 14.9898 19.625 15.9582 19.625C16.9265 19.625 17.7082 18.8433 17.7082 17.875C17.7082 16.9067 16.9265 16.125 15.9582 16.125ZM21.1848 4.96L18.8515 14.2933C18.8045 14.4835 18.695 14.6524 18.5406 14.773C18.3862 14.8936 18.1957 14.9588 17.9998 14.9583H6.33317C5.91317 14.9583 5.5515 14.655 5.46984 14.235L3.26484 2.125H1.6665C1.18817 2.125 0.791504 1.72833 0.791504 1.25C0.791504 0.771667 1.18817 0.375 1.6665 0.375H3.99984C4.41984 0.375 4.7815 0.678333 4.86317 1.09833L5.36484 3.875H20.3332C20.4658 3.87556 20.5967 3.90612 20.7159 3.96439C20.835 4.02267 20.9395 4.10715 21.0214 4.21151C21.1033 4.31587 21.1606 4.43741 21.1889 4.56703C21.2172 4.69665 21.2158 4.83099 21.1848 4.96ZM19.2132 5.625H5.67984L7.0565 13.2083H17.3115L19.2132 5.625Z" fill="white"/>
</svg>
