<svg width="38" height="35" viewBox="0 0 38 35" fill="none" xmlns="http://www.w3.org/2000/svg">
<path d="M37 24.7239C37 24.7239 32.5662 17.4946 28.5962 13.6106C28.1608 13.1834 27.8158 12.6782 27.574 12.1216C25.6569 7.70464 20.7792 0.550404 14.8213 1.76527C12.0841 0.995717 8.48594 -0.31239 6.60838 4.45942C4.49612 4.76696 1.05487 7.15356 3.08936 10.7717C0.899345 11.9268 -0.0366096 13.9126 2.61997 17.2385C6.60414 22.13 8.69377 22.6713 11.3631 24.3009C12.3259 24.8882 13.1883 25.6201 13.9207 26.4718C17.9515 31.1559 20.2674 34.1214 20.2674 34.1214" fill="#FFFBF5"/>
<path d="M37 24.7239C37 24.7239 32.5662 17.4946 28.5962 13.6106C28.1608 13.1834 27.8158 12.6782 27.574 12.1216C25.6569 7.70464 20.7792 0.550404 14.8213 1.76527C12.0841 0.995717 8.48594 -0.31239 6.60838 4.45942C4.49612 4.76696 1.05487 7.15356 3.08936 10.7717C0.899345 11.9268 -0.0366088 13.9126 2.61997 17.2385C6.60414 22.13 8.69377 22.6713 11.3631 24.3009C12.3259 24.8882 13.1883 25.6201 13.9207 26.4718C17.9515 31.1559 20.2674 34.1214 20.2674 34.1214" stroke="#6B6966" stroke-width="1.5"/>
<path d="M14.5 2C14.5 2 16.1503 2.86433 16.0725 4.0959" stroke="#6B6966" stroke-width="0.5" stroke-linecap="round" stroke-linejoin="round"/>
<path d="M6.60863 4.45935C6.60863 4.45935 9.62432 4.85317 11.4863 6.8042" stroke="#6B6966" stroke-width="0.5" stroke-linecap="round" stroke-linejoin="round"/>
<path d="M3.08931 10.7731C3.08931 10.7731 5.29912 10.826 7.16113 12.777" stroke="#6B6966" stroke-width="0.5" stroke-linecap="round" stroke-linejoin="round"/>
</svg>
