<svg width="375" height="431" viewBox="0 0 375 431" fill="none" xmlns="http://www.w3.org/2000/svg">
<path d="M4.59848 427.936L290.91 426.562L372.442 325.41L370.892 2.52933L2.56494 4.29736L4.59848 427.936Z" fill="#FCF7EE"/>
<path d="M4.41323 428.151C7.12444 431.168 8.34289 426.706 12.1244 426.687C15.9059 426.669 15.8738 426.42 19.6553 426.402C23.4368 426.384 23.414 428.095 27.1956 428.077C30.9771 428.059 30.9716 426.918 34.7221 426.9C38.4727 426.882 38.4716 426.668 42.2532 426.65C46.0347 426.632 46.0162 429.234 49.7977 429.216C53.5792 429.198 53.5455 428.628 57.327 428.61C61.1086 428.592 61.0716 427.344 64.8531 427.326C68.6346 427.308 68.6394 428.306 72.3899 428.288C76.1405 428.27 76.1307 426.238 79.9122 426.219C83.6938 426.201 83.6705 427.806 87.452 427.788C91.2335 427.77 91.206 428.483 94.9875 428.465C98.769 428.446 98.7704 428.732 102.521 428.714C106.271 428.696 106.267 427.769 110.049 427.75C113.83 427.732 113.802 428.267 117.583 428.249C121.365 428.231 121.364 428.195 125.115 428.177C128.866 428.159 128.859 426.733 132.64 426.715C136.422 426.697 136.39 426.59 140.172 426.572C143.953 426.554 143.926 427.231 147.707 427.213C151.489 427.195 151.49 427.445 155.24 427.427C158.991 427.409 158.997 428.692 162.779 428.674C166.56 428.656 166.526 427.943 170.307 427.925C174.089 427.907 174.06 428.442 177.842 428.423C181.623 428.405 181.617 427.086 185.368 427.068C189.118 427.05 189.125 428.441 192.906 428.422C196.688 428.404 196.676 425.908 200.426 425.89C204.177 425.872 204.214 427.227 207.965 427.209C211.715 427.191 211.748 427.583 215.499 427.565C219.249 427.547 219.28 427.547 223.031 427.529C226.781 427.511 226.809 426.869 230.56 426.851C234.31 426.833 234.338 426.049 238.088 426.031C241.839 426.013 241.836 425.549 245.618 425.531C249.4 425.513 249.412 428.151 253.163 428.133C256.913 428.115 256.943 427.901 260.694 427.883C264.444 427.865 264.468 426.332 268.249 426.314C272.031 426.296 272.031 426.367 275.813 426.349C279.594 426.331 279.594 426.188 283.375 426.17C287.157 426.152 287.76 429.108 291.223 427.38C294.656 425.652 294.121 424.157 296.648 420.972C299.206 417.822 297.648 416.154 300.205 413.004C302.763 409.854 304.414 411.629 306.972 408.479C309.529 405.329 308.906 404.654 311.433 401.505C313.991 398.355 314.489 398.887 317.016 395.702C319.573 392.552 318.67 391.594 321.227 388.444C323.785 385.294 323.224 384.69 325.782 381.541C328.308 378.391 329.305 379.456 331.863 376.306C334.42 373.156 334.202 372.907 336.729 369.758C339.287 366.608 338.477 365.756 341.034 362.606C343.592 359.456 344.246 360.13 346.773 356.981C349.33 353.831 348.801 353.263 351.358 350.113C353.916 346.963 355.505 348.667 358.062 345.517C360.62 342.331 359.966 341.657 362.492 338.472C365.05 335.286 364.426 334.612 366.984 331.462C369.541 328.276 372.091 329.976 373.467 325.94C374.812 321.976 371.956 321.241 371.936 316.998C371.916 312.755 371.544 312.757 371.523 308.514C371.503 304.271 371.379 304.272 371.359 300.029C371.338 295.786 371.865 295.784 371.845 291.541C371.825 287.298 373.281 287.291 373.261 283.048C373.241 278.806 373.303 278.805 373.282 274.563C373.262 270.32 371.557 270.328 371.537 266.085C371.516 261.842 371.857 261.841 371.837 257.598C371.817 253.355 373.149 253.349 373.129 249.106C373.109 244.863 371.745 244.87 371.724 240.627C371.704 236.384 373.192 236.377 373.172 232.134C373.151 227.891 371.291 227.9 371.271 223.657C371.251 219.415 372.77 219.407 372.749 215.164C372.729 210.922 372.729 210.922 372.708 206.679C372.688 202.436 373.122 202.434 373.102 198.191C373.081 193.948 370.788 193.959 370.767 189.717C370.747 185.474 372.452 185.466 372.431 181.223C372.411 176.98 371.977 176.982 371.957 172.739C371.936 168.496 372.401 168.494 372.381 164.251C372.36 160.009 370.594 160.017 370.573 155.774C370.553 151.532 370.584 151.531 370.563 147.289C370.543 143.046 371.008 143.044 370.988 138.801C370.967 134.558 372.548 134.55 372.528 130.308C372.507 126.065 370.555 126.074 370.534 121.831C370.514 117.588 371.041 117.586 371.02 113.343C371 109.1 370.938 109.101 370.918 104.858C370.897 100.615 372.044 100.61 372.024 96.3667C372.004 92.1239 372.097 92.1235 372.076 87.845C372.055 83.5666 370.537 83.6095 370.516 79.3667C370.496 75.1239 371.519 75.119 371.498 70.8405C371.478 66.5621 371.292 66.5986 371.272 62.3202C371.251 58.0417 370.042 58.0832 370.022 53.8404C370.002 49.5976 370.559 49.5949 370.539 45.3521C370.519 41.1093 370.209 41.1108 370.188 36.8323C370.168 32.5539 371.563 32.5828 371.542 28.3044C371.522 24.0259 370.127 24.0682 370.106 19.7898C370.086 15.5113 369.931 15.5121 369.911 11.2693C369.89 7.02647 373.172 6.15501 370.553 3.13693C367.935 0.154508 367.232 2.1902 363.544 2.2079C359.855 2.22561 359.864 3.97265 356.206 3.9902C352.548 4.00776 352.506 1.58345 348.817 1.60115C345.129 1.61886 345.14 3.93636 341.451 3.95406C337.763 3.97177 337.753 1.9395 334.096 1.95706C330.438 1.97462 330.416 3.79311 326.758 3.81067C323.101 3.82822 323.071 4.18491 319.414 4.20247C315.756 4.22002 315.726 4.29148 312.068 4.30904C308.411 4.32659 308.367 1.68836 304.709 1.70592C301.052 1.72347 301.028 3.29239 297.34 3.3101C293.651 3.3278 293.652 3.43476 289.963 3.45247C286.275 3.47017 286.279 4.39717 282.622 4.41473C278.964 4.43229 278.933 4.32547 275.275 4.34303C271.617 4.36059 271.583 3.68331 267.926 3.70087C264.268 3.71843 264.241 4.50296 260.583 4.52052C256.926 4.53807 256.89 3.46861 253.201 3.48631C249.513 3.50402 249.51 2.86225 245.821 2.87996C242.132 2.89766 242.139 4.35947 238.482 4.37703C234.824 4.39458 234.795 4.75127 231.138 4.76883C227.48 4.78638 227.44 2.89688 223.751 2.91459C220.063 2.93229 220.059 2.21922 216.371 2.23692C212.682 2.25463 212.692 4.28689 209.004 4.3046C205.315 4.32231 205.317 4.78581 201.629 4.80351C197.94 4.82122 197.936 4.03683 194.248 4.05454C190.559 4.07224 190.562 4.67836 186.874 4.69606C183.185 4.71377 183.182 4.03635 179.493 4.05405C175.805 4.07176 175.808 4.74918 172.12 4.76689C168.431 4.78459 168.425 3.57236 164.737 3.59007C161.048 3.60777 161.044 2.82339 157.387 2.84095C153.729 2.8585 153.698 2.89431 150.041 2.91186C146.383 2.92942 146.361 4.78357 142.704 4.80112C139.046 4.81868 139.009 3.42833 135.32 3.44604C131.631 3.46374 131.634 3.99855 127.945 4.01626C124.257 4.03396 124.252 3.10696 120.595 3.12452C116.937 3.14208 116.903 2.4648 113.215 2.48251C109.526 2.50021 109.538 5.03163 105.85 5.04934C102.161 5.06705 102.163 5.35228 98.474 5.36998C94.7855 5.38769 94.7743 3.07019 91.0858 3.0879C87.3973 3.1056 87.3966 2.96299 83.708 2.98069C80.0195 2.9984 80.0263 4.42455 76.3378 4.44226C72.6493 4.45996 72.6498 4.56692 68.9612 4.58463C65.2727 4.60233 65.2703 4.10318 61.5818 4.12089C57.8932 4.13859 57.8934 4.17425 54.2049 4.19195C50.5163 4.20966 50.5149 3.92443 46.8264 3.94213C43.1379 3.95984 43.141 4.60161 39.4524 4.61931C35.7639 4.63702 35.7581 3.42479 32.0695 3.44249C28.381 3.4602 28.381 3.4602 24.6924 3.47791C21.0039 3.49561 21.0123 5.24265 17.3238 5.26035C13.6352 5.27806 13.6263 3.42406 9.90678 3.44192C6.18725 3.45977 4.56279 0.829125 1.94249 3.83669C-0.646806 6.84411 3.48475 8.71397 3.50511 12.9568C3.52548 17.1996 3.18452 17.2012 3.20472 21.4084C3.22491 25.6155 3.876 25.648 3.89637 29.8908C3.91674 34.1337 3.4208 34.136 3.44116 38.3788C3.46153 42.6216 1.94272 42.6289 1.96292 46.8361C1.98311 51.0432 3.53309 51.0714 3.55328 55.2786C3.57348 59.4857 2.20982 59.5279 2.23001 63.7351C2.25021 67.9422 3.95517 67.9697 3.97536 72.1769C3.99556 76.384 1.60903 76.4311 1.62922 80.6383C1.64942 84.8454 3.47836 84.8723 3.49873 89.1151C3.51909 93.3579 4.04603 93.3554 4.06639 97.5982C4.08676 101.841 1.79305 101.852 1.81324 106.059C1.83344 110.266 3.75537 110.293 3.77556 114.5C3.79576 118.707 1.93616 118.752 1.95636 122.959C1.97655 127.166 4.36342 127.19 4.38379 131.433C4.40416 135.676 2.97833 135.683 2.9987 139.925C3.01907 144.168 3.11206 144.168 3.13242 148.411C3.15279 152.653 1.97494 152.659 1.9953 156.902C2.01567 161.145 3.03854 161.14 3.05873 165.347C3.07893 169.554 2.92412 169.59 2.94449 173.833C2.96485 178.076 4.63864 178.068 4.65901 182.311C4.67938 186.554 3.74949 186.558 3.76986 190.801C3.79023 195.044 3.72823 195.044 3.7486 199.287C3.76897 203.53 3.86195 203.529 3.88232 207.772C3.90269 212.015 3.03479 212.019 3.05516 216.262C3.07553 220.504 4.40836 220.498 4.42873 224.741C4.44909 228.984 3.24024 228.989 3.26061 233.232C3.28098 237.475 3.126 237.476 3.14636 241.719C3.16673 245.961 3.16673 245.961 3.18692 250.169C3.20712 254.376 3.61024 254.409 3.63043 258.617C3.65063 262.824 4.98363 262.853 5.00383 267.06C5.02402 271.267 3.84634 271.309 3.86671 275.551C3.88708 279.794 4.97194 279.789 4.99231 284.032C5.01267 288.275 4.36175 288.278 4.38195 292.485C4.40214 296.692 2.72852 296.736 2.74889 300.979C2.76926 305.221 4.50504 305.213 4.52541 309.456C4.54577 313.699 2.65501 313.708 2.67537 317.95C2.69574 322.193 5.08244 322.182 5.10281 326.425C5.12317 330.667 5.27816 330.667 5.29852 334.91C5.31889 339.152 3.21115 339.162 3.23152 343.405C3.25188 347.648 3.22089 347.648 3.24125 351.891C3.26162 356.134 4.28449 356.129 4.30486 360.372C4.32522 364.614 3.05438 364.621 3.07475 368.863C3.09512 373.106 4.73791 373.098 4.75828 377.341C4.77864 381.584 3.22884 381.591 3.2492 385.834C3.26957 390.077 3.39355 390.076 3.41392 394.319C3.43429 398.562 5.57302 398.552 5.59339 402.794C5.61375 407.037 5.61375 407.037 5.63412 411.28C5.65448 415.523 4.19681 415.352 3.37994 419.527C2.50296 424.095 1.67308 425.561 4.32196 428.508L4.41323 428.151Z" fill="#FCF7EE" stroke="#937B63" stroke-width="2" stroke-linecap="round" stroke-linejoin="round"/>
<path d="M297.537 347.911C348.342 354.727 372.441 325.41 372.441 325.41C372.441 325.41 354.928 403.008 290.909 426.562C290.909 426.562 304.716 384.102 297.537 347.911Z" fill="#FCF7EE"/>
<path d="M296.602 346.989C299.084 347.333 302.493 347.175 304.849 347.341C307.33 347.508 309.697 349.885 312.053 349.91C314.564 349.898 316.908 347.533 319.232 347.379C321.742 347.225 324.13 347.534 326.453 347.166C328.962 346.798 331.189 345.753 333.48 345.243C335.957 344.696 338.375 344.72 340.604 343.997C343.049 343.236 345.748 343.794 347.913 342.892C350.326 341.882 352.207 339.805 354.279 338.725C356.66 337.466 359.449 337.488 361.365 336.231C363.775 334.651 365.188 331.899 366.824 330.5C370.529 327.416 369.147 323.643 372.257 325.768C375.398 327.928 370.904 327.985 369.316 332.984C368.614 335.234 368.007 337.946 366.936 340.911C366.048 343.268 366.809 346.794 365.675 349.51C364.664 351.903 361.602 353.273 360.375 355.882C359.27 358.24 359.908 361.945 358.618 364.447C357.389 366.771 354.668 368.174 353.285 370.57C351.963 372.858 350.579 375.147 349.071 377.436C347.625 379.653 346.77 382.438 345.169 384.657C343.63 386.768 340.938 387.779 339.212 389.855C337.548 391.86 336.725 394.859 334.937 396.828C333.179 398.726 331.047 400.234 329.165 402.062C327.314 403.853 326.244 406.925 324.268 408.61C322.323 410.259 319.911 411.305 317.841 412.848C315.803 414.355 313.859 416.219 311.696 417.584C309.594 418.913 307.4 420.35 305.144 421.573C302.948 422.76 300.283 422.809 297.963 423.854C295.705 424.863 292.705 426.197 290.322 427.064C288.135 423.402 292.972 423.735 294.311 418.452C294.919 416.024 294.097 412.641 294.763 409.393C295.308 406.717 296.814 404.071 297.326 400.966C297.809 398.183 298.043 395.187 298.431 392.154C298.789 389.3 298.062 386.238 298.295 383.206C298.529 380.317 300.623 377.454 300.702 374.459C300.781 371.535 298.504 368.551 298.397 365.592C298.289 362.633 298.771 359.671 298.447 356.749C298.123 353.792 297.236 349.91 296.665 347.024L296.602 346.989Z" fill="#FCF7EE" stroke="#937B63" stroke-width="2" stroke-linecap="round" stroke-linejoin="round"/>
</svg>
