<svg width="23" height="20" viewBox="0 0 23 20" fill="none" xmlns="http://www.w3.org/2000/svg">
<path d="M14.0867 7.3093L14.4883 7.31432L14.8397 7.12355L15.161 6.90769L15.4873 6.7119L15.8036 6.48098L16.0345 6.16973L16.2253 5.82837L16.406 5.487L16.5867 5.14563L16.7724 4.79423L16.8227 4.40266L16.9682 4.02615L17.0235 3.63458L16.9231 3.238L16.8929 2.85145L16.8779 2.4649L16.8227 2.08337L16.7724 1.68678L16.5064 1.37554L16.3959 0.973931L16.0998 0.697824L15.7986 0.431759L15.4823 0.175735L15.0757 0.130554L14.6941 3.05176e-05L14.2925 0.0401922L13.8959 0.0903925L13.5144 0.160674L13.1931 0.386578L12.8016 0.507062L12.4953 0.768107L12.2694 1.09943L12.0485 1.43076L11.9331 1.80727L11.7222 2.15365L11.672 2.55024L11.6068 2.93679L11.5716 3.32836L11.5616 3.71992L11.5415 4.10647V4.49804L11.6118 4.87957L11.6168 5.27615L11.7674 5.64262L11.9783 5.97395L12.0837 6.35046L12.3598 6.63158L12.6409 6.88761L12.9823 7.05829L13.3136 7.2591L13.7001 7.32436L14.0867 7.3093Z" fill="#6B8970"/>
<path d="M8.34372 0.798215L7.97223 0.697813L7.60075 0.602431L7.20918 0.597412L6.82263 0.647612L6.4411 0.742994L6.10977 0.963879L5.71821 1.06428L5.45716 1.37051L5.1911 1.65163L4.87483 1.91268L4.79451 2.30927L4.67403 2.67573L4.64893 3.07232L4.66399 3.46891L4.71419 3.86048L4.71921 4.25706L4.80957 4.64361L4.87483 5.03518L4.99531 5.41671L5.27644 5.71791L5.47222 6.05928L5.68809 6.38558L5.89391 6.74202L6.24532 6.94784L6.60174 7.12354L6.89793 7.41471L7.2895 7.50005L7.67605 7.66069L8.08267 7.57033L8.46922 7.50507L8.82565 7.32434L9.09674 7.02816L9.41802 6.76711L9.59373 6.40065L9.69915 6.00908L9.79955 5.62253L10.0004 5.25606L10.0355 4.84944V4.44783L10.0907 4.0412L9.96521 3.65465L9.85477 3.28316L9.80457 2.90164L9.74935 2.52011L9.58368 2.17372L9.40798 1.8424L9.26742 1.47593L9.01139 1.18476L8.66501 1.00906L8.34372 0.798215Z" fill="#6B8970"/>
<path d="M1.26004 6.33541L0.928718 6.51614L0.682732 6.80731L0.50201 7.13361L0.321286 7.45992L0.240965 7.82639L0.150603 8.19285L0.0803215 8.56434L0 8.94085L0.125503 9.31736L0.140562 9.69888L0.135541 10.0905L0.190762 10.482L0.351406 10.8384L0.55221 11.1748L0.747994 11.5061L0.873496 11.8876L1.1747 12.1437L1.43073 12.4348L1.67169 12.7511L2.03816 12.9067L2.35945 13.1276L2.73595 13.233L3.11748 13.2983L3.50403 13.3585L3.90062 13.3485L4.25202 13.1527L4.64359 13.0623L4.8946 12.7561L5.10544 12.4399L5.40163 12.1587L5.41167 11.7471L5.53717 11.3856L5.69279 11.0192L5.73295 10.6276L5.67773 10.236L5.59741 9.85451L5.56227 9.46796L5.57733 9.07137L5.41669 8.70992L5.28617 8.33342L5.21086 7.93181L4.95484 7.61554L4.71889 7.29927L4.52813 6.93783L4.1968 6.70691L3.8956 6.44586L3.56427 6.21995L3.1978 6.05429L2.7962 5.99907L2.38957 5.94385L2.01306 6.11453L1.63153 6.19987L1.26004 6.33541Z" fill="#6B8970"/>
<path d="M21.1949 4.99L20.8184 4.8896L20.457 4.77916L20.0754 4.7139L19.704 4.84442L19.3274 4.89964L18.9359 4.97494L18.6447 5.25607L18.3535 5.50205L18.0072 5.69282L17.716 5.95386L17.465 6.25005L17.3244 6.63158L17.0132 6.89262L16.8927 7.26913L16.6919 7.61049L16.6818 8.00708L16.5614 8.37355L16.5513 8.75508L16.466 9.12657L16.4509 9.50809L16.3706 9.88962L16.4509 10.2661L16.5363 10.6376L16.6818 10.989L16.8676 11.3103L17.0383 11.6416L17.3094 11.9328L17.6859 12.0432L18.0423 12.1637L18.4188 12.224L18.7953 12.234L19.1668 12.1938L19.5333 12.1286L19.8997 12.0332L20.2712 11.9127L20.5574 11.6467L20.8385 11.3906L21.1046 11.1195L21.3104 10.7932L21.6015 10.5372L21.712 10.1557L21.963 9.82938L22.0935 9.44283L22.1839 9.04624L22.3295 8.66471L22.4449 8.26813L22.3897 7.85146L22.3947 7.44483L22.46 7.03318L22.3947 6.62153L22.1588 6.27013L22.0835 5.84844L21.7471 5.58739L21.5413 5.22093L21.1949 4.99Z" fill="#6B8970"/>
<path d="M17.977 16.8575L18.0071 16.4659L18.0523 16.0593L17.9268 15.6828L17.8264 15.3013L17.7209 14.9197L17.5302 14.5683L17.2742 14.2621L17.234 13.8253L16.9729 13.5241L16.6768 13.253L16.4659 12.9117L16.1296 12.6908L15.8384 12.4197L15.6025 12.0783L15.1406 11.9629L14.9448 11.5864L14.6737 11.2852L14.498 10.8886L14.1968 10.6024L13.7551 10.4769L13.484 10.1607L13.1125 9.98998L12.746 9.8193L12.3394 9.7691L11.9428 9.68376L11.5512 9.63356L11.1597 9.62854L10.7781 9.69882L10.3866 9.73898L10.0603 9.99501L9.65866 10.0352L9.2922 10.1958L9.10645 10.5773L8.72995 10.738L8.45384 11.0141L8.32834 11.4157L7.97693 11.6215L7.75103 11.9378L7.45484 12.1938L7.20384 12.495L6.87753 12.7159L6.66166 13.0623L6.245 13.2129L6.12954 13.6446L5.71287 13.8253L5.60243 14.237L5.29118 14.5231L5.15062 14.9047L4.94479 15.2561L4.94981 15.6828L4.73395 16.0442L4.72391 16.4509L4.71387 16.8575L4.79419 17.2491L4.93977 17.6205L5.09539 17.9719L5.1707 18.3886L5.52712 18.6095L5.75303 18.9709L6.17974 19.0613L6.44078 19.4579L6.87753 19.478L7.27914 19.5332L7.68075 19.7189L8.08737 19.5232L8.50404 19.5683L8.89059 19.4278L9.30726 19.3826L9.64361 19.1115L10.1055 19.2069L10.4719 18.976L10.8886 19.0914L11.2852 18.9509L11.7069 18.9157L12.0683 19.1768L12.5151 19.0814L12.8766 19.3023L13.2681 19.4027L13.6195 19.6587L14.0613 19.5683L14.4529 19.6788L14.8545 19.6336L15.2661 19.8695L15.6426 19.6135L16.0442 19.5432L16.3906 19.3374L16.7119 19.1266L17.0533 18.9308L17.4298 18.745L17.5703 18.3485L17.9268 18.0774L18.0422 17.6758L17.9569 17.2491L17.977 16.8575Z" fill="#6B8970"/>
</svg>
