<svg width="27" height="30" viewBox="0 0 27 30" fill="none" xmlns="http://www.w3.org/2000/svg">
<path d="M21.4209 4.7C20.2438 3.39937 19.5952 1.72905 19.5957 0H14.2749V20.6667C14.2338 21.785 13.746 22.8444 12.9141 23.6216C12.0823 24.3988 10.9712 24.8332 9.81505 24.8333C7.3699 24.8333 5.33801 22.9 5.33801 20.5C5.33801 17.6333 8.19643 15.4833 11.1409 16.3667V11.1C5.20026 10.3333 0 14.8 0 20.5C0 26.05 4.75255 30 9.79783 30C15.2047 30 19.5957 25.75 19.5957 20.5V10.0167C21.7532 11.5164 24.3437 12.3211 27 12.3167V7.16667C27 7.16667 23.7628 7.31667 21.4209 4.7Z" fill="white"/>
</svg>
