<svg width="34" height="30" viewBox="0 0 34 30" fill="none" xmlns="http://www.w3.org/2000/svg">
<path d="M21.3335 10.286L21.3142 10.2858L21.295 10.2865L20.7872 10.3062L20.4194 10.2443L20.0402 10.0151L20.0142 9.99938L19.9869 9.9858L19.563 9.77437L19.2296 9.47159L18.9618 9.19961L18.8544 8.81706L18.8244 8.71005L18.7646 8.61636L18.4812 8.17224L18.3333 7.81318L18.3275 7.3579L18.3267 7.29402L18.3151 7.2312L18.2212 6.72269V6.21968L18.2506 5.65554L18.2511 5.64568L18.2513 5.6358L18.2659 5.06861L18.3143 4.53046L18.4083 3.97566L18.4109 3.96033L18.4128 3.94491L18.4686 3.50537L18.7041 3.11941L18.7532 3.03908L18.7808 2.94913L18.9233 2.48567L19.1945 2.08L19.4775 1.66599L19.7466 1.43719L20.1914 1.30067L20.3049 1.26586L20.402 1.19773L20.7543 0.950658L21.1502 0.877936L21.7199 0.806007L22.1558 0.762529L22.579 0.906934L22.6568 0.933494L22.7386 0.942554L23.1362 0.986618L23.4318 1.2253L23.8681 1.60971L24.1534 1.87491L24.264 2.27621L24.3086 2.43772L24.4176 2.56493L24.6741 2.8642L24.7218 3.24001L24.7217 3.24003L24.7236 3.25328L24.8015 3.79031L24.8228 4.33454L24.8233 4.34912L24.8245 4.36367L24.8701 4.9473L24.8751 5.01124L24.8908 5.07341L25.0065 5.52898L24.9557 5.88834L24.7665 6.37626L24.7336 6.46129L24.7219 6.55173L24.6633 7.00778L24.4462 7.41751L24.4459 7.41795L24.1726 7.93292L23.903 8.44079L23.642 8.90656L23.3894 9.24617L23.0302 9.50778L22.5653 9.78601L22.5488 9.79586L22.5329 9.80653L22.0759 10.1128L21.7464 10.2912L21.3335 10.286Z" fill="#CB7373" stroke="#3A1919" stroke-width="1.5"/>
<path d="M9.43486 2.18192L9.55825 2.15036L9.66431 2.07984L10.0579 1.81814L10.4675 1.716L10.9569 1.65261L11.4069 1.65836L11.8778 1.77896L12.3201 1.8982L12.7064 2.15105L12.7413 2.17391L12.7786 2.19275L13.1743 2.39294L13.3774 2.62336L13.5419 3.05094L13.5582 3.09353L13.5797 3.13383L13.8383 3.62031L14.0329 4.02601L14.0993 4.48396L14.1747 5.05517L14.1825 5.11423L14.1995 5.17132L14.3667 5.73221L14.3693 5.7412L14.3722 5.75012L14.5091 6.17051L14.4487 6.61436L14.4418 6.66472V6.71555V7.28949L14.4051 7.71344L14.1773 8.12805L14.1324 8.20985L14.1088 8.30016L13.9577 8.88058L13.817 9.40159L13.6541 9.74064L13.2985 10.0288L13.2555 10.0636L13.2181 10.1044L12.9 10.451L12.5839 10.6108L12.1111 10.6905L12.0921 10.6937L12.0733 10.6978L11.6887 10.7831L11.3221 10.6311L11.2599 10.6053L11.1942 10.5911L10.8128 10.5081L10.5189 10.2199L10.4328 10.1356L10.3247 10.0824L9.80929 9.82901L9.4719 9.63192L9.25975 9.26548L9.24831 9.24573L9.2357 9.22671L8.92215 8.75399L8.6377 8.25932L8.59444 8.18409L8.53515 8.12073L8.22569 7.79002L8.11058 7.42649L8.02052 6.88754L8.01653 6.86362L8.01099 6.84001L7.89289 6.33611L7.88633 5.81922L7.88578 5.77599L7.88027 5.73311L7.80857 5.17532L7.7885 4.64824L7.818 4.18341L7.97028 3.72143L7.98416 3.67933L7.99298 3.63589L8.06163 3.2978L8.33502 3.07274L8.37063 3.04342L8.40239 3.00996L8.80516 2.5855L8.81858 2.57136L8.83124 2.55654L9.07214 2.27468L9.43486 2.18192Z" fill="#CB7373" stroke="#3A1919" stroke-width="1.5"/>
<path d="M1.41563 11.1348L1.41564 11.1348L1.65344 10.7065L1.88753 10.4302L2.21662 10.2512L2.68059 10.0823L3.21069 9.96405L3.28603 9.94724L3.35637 9.91543L3.73009 9.74646L4.13099 9.80076L4.13222 9.80092L4.63147 9.86939L5.02783 10.0481L5.43953 10.3281L5.86267 10.6938L5.89258 10.7197L5.92504 10.7423L6.27701 10.9869L6.48057 11.3716L6.5079 11.4233L6.54289 11.47L6.90007 11.9476L6.90896 11.9595L6.91832 11.971L7.18622 12.3011L7.26513 12.7208L7.27545 12.7757L7.29379 12.8285L7.49137 13.3969L7.5018 13.4269L7.51474 13.456L7.68688 13.8423L7.67073 14.2667L7.66888 14.3151L7.67328 14.3633L7.72648 14.9469L7.73047 14.9907L7.73955 15.0337L7.8559 15.585L7.92313 16.0605L7.8833 16.4478L7.69213 16.8968L7.68221 16.9201L7.67388 16.944L7.4839 17.4898L7.4453 17.6006L7.44242 17.718L7.43485 18.0277L7.21302 18.2377L7.15188 18.2956L7.1051 18.3656L6.80651 18.8123L6.61227 19.0486L6.2685 19.1278L6.16514 19.1515L6.07243 19.2031L5.70158 19.4091L5.35293 19.4179L4.8399 19.3382L4.30607 19.2471L3.89328 19.1318L3.50951 18.8687L3.44732 18.826L3.37788 18.7966L3.00603 18.6391L2.76184 18.3195L2.74585 18.2985L2.72843 18.2788L2.34086 17.8392L2.30483 17.7983L2.26326 17.7631L1.96841 17.5131L1.84458 17.1376L1.81908 17.0603L1.77757 16.9902L1.4812 16.49L1.4812 16.49L1.47946 16.4871L1.19765 16.0163L1.01638 15.6151L0.955861 15.1871L0.962722 14.6535L0.962974 14.6339L0.962197 14.6142L0.939399 14.0382L0.935175 13.9314L0.901312 13.8301L0.776257 13.4559L0.855002 13.0878L0.856826 13.0792L0.858452 13.0707L0.961006 12.53L1.09285 11.9967L1.0952 11.9872L1.09729 11.9777L1.19533 11.5315L1.41563 11.1348Z" fill="#CB7373" stroke="#3A1919" stroke-width="1.5"/>
<path d="M31.2967 8.09999L31.3096 8.10391L31.3226 8.10737L31.773 8.22717L32.0445 8.40768L32.2677 8.80413L32.3422 8.93633L32.4621 9.0292L32.743 9.24662L32.8061 9.59913L32.834 9.75469L32.9222 9.88579L33.1869 10.2789L33.2409 10.6191L33.1609 11.1228L33.1523 11.1767L33.1516 11.2313L33.144 11.8452L33.1433 11.8995L33.1505 11.9533L33.2132 12.4255L33.0914 12.843L32.8819 13.3905L32.863 13.4399L32.8512 13.4914L32.7229 14.053L32.5777 14.4819L32.2741 14.8755L32.1874 14.988L32.1478 15.1245L32.0416 15.4902L31.7656 15.7323L31.6841 15.8037L31.6262 15.8953L31.3576 16.3201L31.0259 16.6571L30.6159 17.0295L30.6159 17.0295L30.6102 17.0348L30.2985 17.3238L29.9148 17.4479L29.4098 17.579L28.9092 17.668L28.4224 17.7204L27.9522 17.7079L27.493 17.6347L27.0129 17.4728L26.9985 17.4679L26.9839 17.4637L26.6113 17.3547L26.4118 17.141L26.2009 16.7327L26.1926 16.7165L26.1834 16.7008L25.9271 16.2584L25.7498 15.8316L25.636 15.3377L25.549 14.9308L25.6376 14.5107L25.6507 14.4487L25.6532 14.3855L25.6732 13.8796L25.7867 13.3872L25.8036 13.3139L25.8055 13.2386L25.8178 12.7728L25.9657 12.3243L26.0003 12.2192L26.0031 12.1085L26.0134 11.7042L26.2186 11.3563L26.2611 11.2842L26.2867 11.2044L26.4028 10.8427L26.7073 10.588L26.8605 10.4598L26.9297 10.2726L27.0964 9.82107L27.3571 9.51425L27.6958 9.21144L28.1451 8.96464L28.2103 8.92879L28.2673 8.88081L28.7081 8.50941L28.7271 8.49337L28.745 8.4761L29.0254 8.20606L29.3833 8.13742L29.9368 8.05645L30.0082 8.046L30.0763 8.02214L30.4556 7.88921L30.7951 7.94712L31.2967 8.09999Z" fill="#CB7373" stroke="#3A1919" stroke-width="1.5"/>
<path d="M26.4657 25.3946L26.465 25.4042L26.4645 25.4138L26.4341 26.005L26.4292 26.0988L26.4477 26.1909L26.5409 26.6558L26.4858 26.8471L26.1446 27.1059L25.9662 27.2413L25.8912 27.4523L25.7805 27.7638L25.4841 27.9097L25.4631 27.92L25.4428 27.9316L24.926 28.2272L24.9065 28.2384L24.8877 28.2507L24.4153 28.5599L24.0234 28.7922L23.5508 28.8747L23.3921 28.9024L23.2588 28.9928L23.0759 29.1168L22.8588 28.9927L22.6463 28.8712L22.403 28.8985L21.9407 28.9504L21.489 28.8233L21.3141 28.7741L21.136 28.8104L20.7909 28.8808L20.5261 28.6884L20.41 28.6041L20.271 28.5685L19.787 28.4447L19.3356 28.1696L19.0809 28.0144L18.7891 28.0765L18.4377 28.1513L18.1601 27.9514L17.9355 27.7896L17.6596 27.8125L17.0213 27.8656L16.9248 27.8736L16.8334 27.9059L16.4555 28.0395L16.0521 27.928L15.7333 27.8399L15.4532 28.0159L15.1536 28.2041L14.7497 28.1209L14.4038 28.0497L14.1285 28.271L13.7904 28.5428L13.3778 28.5874L13.2879 28.5971L13.2028 28.628L12.7811 28.7809L12.3232 28.7314L12.1106 28.7084L11.9179 28.801L11.6206 28.9437L11.3332 28.8112L11.2317 28.7644L11.121 28.7492L10.513 28.6658L10.4794 28.6612L10.4455 28.6596L10.1657 28.6468L9.98075 28.3666L9.81111 28.1096L9.50977 28.0459L9.17531 27.9753L9.00238 27.6993L8.90968 27.5514L8.76118 27.4596L8.50573 27.3017L8.45128 27.0012L8.43525 26.9128L8.39877 26.8306L8.16981 26.3149L7.97897 25.8292L7.88763 25.3852L7.90071 24.8569L7.91103 24.4403L8.13638 24.0639L8.24536 23.8819L8.24286 23.6698L8.23772 23.2342L8.44362 22.8836L8.47735 22.8262L8.50043 22.7637L8.65033 22.3579L8.98772 22.0485L9.14845 21.9011L9.2051 21.6905L9.27821 21.4188L9.57656 21.2897L9.9093 21.1458L10.0032 20.7956L10.0765 20.5222L10.3387 20.4277L10.5828 20.3396L10.7204 20.1195L10.9628 19.7316L11.3247 19.4872L11.4126 19.4279L11.4806 19.3465L11.8212 18.9388L12.2231 18.5923L12.291 18.5338L12.3432 18.461L12.5919 18.1136L12.9857 17.8836L13.2363 17.7372L13.323 17.4602L13.4578 17.0302L13.6423 16.8461L14.0789 16.6603L14.3365 16.5507L14.4592 16.2992L14.6195 15.9709L14.8133 15.8862L15.3036 15.8373L15.5201 15.8157L15.6914 15.6816L16.0148 15.4285L16.3922 15.3899L16.422 15.3868L16.4514 15.3814L16.957 15.2885L17.4337 15.2946L17.9525 15.361L18.5219 15.4832L18.5545 15.4902L18.5876 15.4943L19.086 15.5556L19.5336 15.7636L19.5336 15.7636L19.5372 15.7652L19.9502 15.9545L20.2535 16.3074L20.4007 16.4787L20.6179 16.5402L21.1091 16.6794L21.3225 16.8815L21.5276 17.3434L21.5761 17.4526L21.6562 17.5414L22.0026 17.9252L22.2547 18.4089L22.4108 18.7082L22.7383 18.7899L23.1634 18.8959L23.3597 19.1791L23.4061 19.2461L23.4658 19.3015L23.9065 19.7108L23.9529 19.7539L24.0059 19.7886L24.376 20.031L24.6076 20.405L24.6625 20.4937L24.7396 20.564L25.1559 20.9441L25.3641 21.1837L25.4027 21.6025L25.4242 21.8358L25.5748 22.0154L25.9142 22.4203L26.1261 22.8096L26.2615 23.2984L26.4123 23.87L26.4185 23.8934L26.4262 23.9164L26.5638 24.3282L26.5137 24.778L26.5123 24.7907L26.5113 24.8034L26.4657 25.3946Z" fill="#CB7373" stroke="#3A1919" stroke-width="1.5"/>
</svg>
