<svg width="32" height="32" viewBox="0 0 32 32" fill="none" xmlns="http://www.w3.org/2000/svg">
<path d="M16 11.5C14.8065 11.5 13.6619 11.9741 12.818 12.818C11.9741 13.6619 11.5 14.8065 11.5 16C11.5 17.1935 11.9741 18.3381 12.818 19.182C13.6619 20.0259 14.8065 20.5 16 20.5C17.1935 20.5 18.3381 20.0259 19.182 19.182C20.0259 18.3381 20.5 17.1935 20.5 16C20.5 14.8065 20.0259 13.6619 19.182 12.818C18.3381 11.9741 17.1935 11.5 16 11.5ZM16 8.5C17.9891 8.5 19.8968 9.29018 21.3033 10.6967C22.7098 12.1032 23.5 14.0109 23.5 16C23.5 17.9891 22.7098 19.8968 21.3033 21.3033C19.8968 22.7098 17.9891 23.5 16 23.5C14.0109 23.5 12.1032 22.7098 10.6967 21.3033C9.29018 19.8968 8.5 17.9891 8.5 16C8.5 14.0109 9.29018 12.1032 10.6967 10.6967C12.1032 9.29018 14.0109 8.5 16 8.5ZM25.75 8.125C25.75 8.62228 25.5525 9.09919 25.2008 9.45082C24.8492 9.80246 24.3723 10 23.875 10C23.3777 10 22.9008 9.80246 22.5492 9.45082C22.1975 9.09919 22 8.62228 22 8.125C22 7.62772 22.1975 7.15081 22.5492 6.79917C22.9008 6.44754 23.3777 6.25 23.875 6.25C24.3723 6.25 24.8492 6.44754 25.2008 6.79917C25.5525 7.15081 25.75 7.62772 25.75 8.125ZM16 4C12.289 4 11.683 4.0105 9.9565 4.087C8.7805 4.1425 7.9915 4.3 7.2595 4.585C6.64692 4.80991 6.09312 5.17039 5.6395 5.6395C5.17001 6.0931 4.80903 6.64688 4.5835 7.2595C4.2985 7.9945 4.141 8.782 4.087 9.9565C4.009 11.6125 3.9985 12.1915 3.9985 16C3.9985 19.7125 4.009 20.317 4.0855 22.0435C4.141 23.218 4.2985 24.0085 4.582 24.739C4.837 25.3915 5.137 25.861 5.635 26.359C6.1405 26.863 6.61 27.1645 7.255 27.4135C7.996 27.7 8.785 27.859 9.955 27.913C11.611 27.991 12.19 28 15.9985 28C19.711 28 20.3155 27.9895 22.042 27.913C23.215 27.8575 24.004 27.7 24.7375 27.4165C25.3495 27.1905 25.9031 26.8302 26.3575 26.362C26.863 25.858 27.1645 25.3885 27.4135 24.742C27.6985 24.004 27.8575 23.215 27.9115 22.042C27.9895 20.3875 27.9985 19.807 27.9985 16C27.9985 12.289 27.988 11.683 27.9115 9.9565C27.856 8.7835 27.697 7.9915 27.4135 7.2595C27.1874 6.64753 26.8271 6.09397 26.359 5.6395C25.9056 5.16977 25.3518 4.80875 24.739 4.5835C24.004 4.2985 23.215 4.141 22.042 4.087C20.3875 4.009 19.81 4 16 4ZM16 1C20.0755 1 20.584 1.015 22.1845 1.09C23.7805 1.165 24.8695 1.4155 25.825 1.7875C26.815 2.1685 27.649 2.6845 28.483 3.517C29.2457 4.26684 29.8359 5.17388 30.2125 6.175C30.583 7.1305 30.835 8.2195 30.91 9.817C30.9805 11.416 31 11.9245 31 16C31 20.0755 30.985 20.584 30.91 22.183C30.835 23.7805 30.583 24.868 30.2125 25.825C29.837 26.8266 29.2466 27.7339 28.483 28.483C27.7329 29.2455 26.826 29.8356 25.825 30.2125C24.8695 30.583 23.7805 30.835 22.1845 30.91C20.584 30.9805 20.0755 31 16 31C11.9245 31 11.416 30.985 9.8155 30.91C8.2195 30.835 7.132 30.583 6.175 30.2125C5.17349 29.8367 4.26629 29.2464 3.517 28.483C2.75415 27.7332 2.16394 26.8262 1.7875 25.825C1.4155 24.8695 1.165 23.7805 1.09 22.183C1.018 20.584 1 20.0755 1 16C1 11.9245 1.015 11.416 1.09 9.817C1.165 8.218 1.4155 7.132 1.7875 6.175C2.16285 5.17327 2.75321 4.26598 3.517 3.517C4.26651 2.75385 5.17364 2.16359 6.175 1.7875C7.1305 1.4155 8.218 1.165 9.8155 1.09C11.416 1.0195 11.9245 1 16 1Z" fill="white" stroke="white"/>
</svg>
