<svg width="31" height="27" viewBox="0 0 31 27" fill="none" xmlns="http://www.w3.org/2000/svg">
<path d="M28.8917 4.65789L27 4.00875C28.8917 4.65789 28.8916 4.65825 28.8915 4.65862L28.8912 4.6594L28.8906 4.66114L28.8892 4.66526L28.8854 4.67611L28.8742 4.70792C28.865 4.73352 28.8526 4.76784 28.8369 4.81004C28.8055 4.89438 28.7608 5.01072 28.7031 5.15247C28.5881 5.43485 28.4187 5.82402 28.1956 6.26533C27.877 6.89583 27.4159 7.69967 26.8037 8.45886C28.0754 20.9267 13.8887 29.511 2.91732 22.4472C2.15756 21.958 1.82016 21.0202 2.09416 20.1591C2.36817 19.298 3.18549 18.7276 4.08822 18.7675C4.9298 18.8047 5.76047 18.7206 6.54474 18.5284C2.26799 15.2429 0.589257 9.18148 3.4046 4.14936C3.72234 3.58143 4.29655 3.2036 4.94386 3.13652C5.59118 3.06945 6.23065 3.32151 6.6581 3.81223C8.35766 5.76339 10.827 7.07374 13.4508 7.47193C13.783 5.33982 15.1587 3.65645 16.94 2.75491C19.0667 1.67857 21.8095 1.68713 24.0665 3.21686C24.3243 3.12798 24.6083 3.0071 24.8901 2.87302C25.1923 2.72923 25.4647 2.58337 25.6622 2.47285C25.7601 2.41808 25.8375 2.37319 25.8884 2.34318C25.9138 2.3282 25.9325 2.31702 25.9438 2.31026L25.9541 2.30402M25.9541 2.30402C25.9542 2.30394 25.9544 2.30385 25.9545 2.30377L25.9541 2.30402Z" stroke="white" stroke-width="4" stroke-linecap="round" stroke-linejoin="round"/>
</svg>
